<svg id="Layer_1" data-name="Layer 1" xmlns="http://www.w3.org/2000/svg" viewBox="0 0 24 24"><defs><style>.cls-1{fill:#fff;}</style></defs><circle cx="12" cy="12" r="12"/><path class="cls-1" d="M12,5.81c2,0,2.26,0,3.05,0a4.23,4.23,0,0,1,1.41.26,2.27,2.27,0,0,1,.86.57,2.27,2.27,0,0,1,.57.86A4.23,4.23,0,0,1,18.15,9c0,.79,0,1,0,3.05s0,2.26,0,3.05a4.23,4.23,0,0,1-.26,1.41,2.6,2.6,0,0,1-1.43,1.43,4.23,4.23,0,0,1-1.41.26c-.79,0-1,0-3.05,0s-2.26,0-3.05,0a4.23,4.23,0,0,1-1.41-.26,2.27,2.27,0,0,1-.86-.57,2.27,2.27,0,0,1-.57-.86,4.23,4.23,0,0,1-.26-1.41c0-.79,0-1,0-3.05s0-2.26,0-3.05a4.23,4.23,0,0,1,.26-1.41,2.27,2.27,0,0,1,.57-.86,2.27,2.27,0,0,1,.86-.57A4.23,4.23,0,0,1,9,5.85c.79,0,1,0,3.05,0m0-1.37c-2.05,0-2.31,0-3.12,0a5.54,5.54,0,0,0-1.83.35A3.84,3.84,0,0,0,4.84,7.05a5.54,5.54,0,0,0-.35,1.83c0,.81,0,1.07,0,3.12s0,2.31,0,3.12A5.54,5.54,0,0,0,4.84,17a3.84,3.84,0,0,0,2.21,2.21,5.54,5.54,0,0,0,1.83.35c.81,0,1.07,0,3.12,0s2.31,0,3.12,0A5.54,5.54,0,0,0,17,19.16,3.84,3.84,0,0,0,19.16,17a5.54,5.54,0,0,0,.35-1.83c0-.81,0-1.07,0-3.12s0-2.31,0-3.12a5.54,5.54,0,0,0-.35-1.83A3.84,3.84,0,0,0,17,4.84a5.54,5.54,0,0,0-1.83-.35c-.81,0-1.07,0-3.12,0Z"/><path class="cls-1" d="M12,8.12A3.88,3.88,0,1,0,15.88,12,3.88,3.88,0,0,0,12,8.12Zm0,6.4A2.52,2.52,0,1,1,14.52,12,2.52,2.52,0,0,1,12,14.52Z"/><circle class="cls-1" cx="16.03" cy="7.97" r="0.91"/></svg>