<svg id="Layer_1" data-name="Layer 1" xmlns="http://www.w3.org/2000/svg" viewBox="0 0 24 24"><defs><style>.cls-1{fill:#fdfdfd;}</style></defs><circle cx="12" cy="12" r="12"/><path class="cls-1" d="M12.93,10.36c.2-.22.36-.44.56-.63a3.06,3.06,0,0,1,2.22-.88A5,5,0,0,1,17.1,9a2.74,2.74,0,0,1,1.94,2,9.1,9.1,0,0,1,.26,2.33c0,1.66,0,3.31,0,5,0,.16,0,.2-.19.2H16.54c-.15,0-.19,0-.19-.19,0-1.58,0-3.16,0-4.73a4.7,4.7,0,0,0-.14-1.18,1.32,1.32,0,0,0-1.45-1A1.59,1.59,0,0,0,13.1,13a6,6,0,0,0,0,.74c0,1.53,0,3.07,0,4.6,0,.15,0,.2-.2.2H10.28c-.14,0-.18,0-.18-.18,0-3,0-6.07,0-9.11,0-.15.05-.19.19-.19h2.46c.15,0,.18.05.18.19C12.92,9.64,12.93,10,12.93,10.36Z"/><path class="cls-1" d="M8.25,13.83v4.51c0,.17,0,.22-.21.22H5.48c-.14,0-.18,0-.18-.18V9.25c0-.12,0-.17.17-.17H8.06c.17,0,.19.07.19.21Z"/><path class="cls-1" d="M8.48,6.07a1.7,1.7,0,0,1-1.7,1.71,1.71,1.71,0,1,1,0-3.41A1.7,1.7,0,0,1,8.48,6.07Z"/></svg>