<svg id="Layer_1" data-name="Layer 1" xmlns="http://www.w3.org/2000/svg" viewBox="0 0 24 24"><defs><style>.cls-1{fill:#fff;}</style></defs><circle cx="12" cy="12" r="12"/><path class="cls-1" d="M9.58,18.91a9,9,0,0,0,9.06-9.07c0-.13,0-.27,0-.41a6.4,6.4,0,0,0,1.59-1.65,5.91,5.91,0,0,1-1.83.5,3.15,3.15,0,0,0,1.4-1.76,6.34,6.34,0,0,1-2,.78,3.18,3.18,0,0,0-5.51,2.18,3.38,3.38,0,0,0,.08.72A9,9,0,0,1,5.77,6.87a3.22,3.22,0,0,0-.43,1.6,3.18,3.18,0,0,0,1.42,2.66,3.16,3.16,0,0,1-1.44-.4v0a3.19,3.19,0,0,0,2.56,3.12A2.94,2.94,0,0,1,7,14a4,4,0,0,1-.6-.05,3.2,3.2,0,0,0,3,2.21,6.43,6.43,0,0,1-4,1.36,6.34,6.34,0,0,1-.76,0,9.07,9.07,0,0,0,4.89,1.43"/></svg>