<svg id="Layer_1" data-name="Layer 1" xmlns="http://www.w3.org/2000/svg" viewBox="0 0 15.29 15.36"><defs><style>.cls-1{fill:#fff;fill-rule:evenodd;}</style></defs><g id="WA_Logo" data-name="WA Logo"><path class="cls-1" d="M17.77,6.38a7.55,7.55,0,0,0-5.38-2.24,7.61,7.61,0,0,0-6.6,11.42L4.71,19.5l4-1.06a7.54,7.54,0,0,0,3.63.93h0A7.63,7.63,0,0,0,20,11.76,7.54,7.54,0,0,0,17.77,6.38Zm-5.38,11.7h0a6.31,6.31,0,0,1-3.22-.88l-.23-.13-2.39.62.64-2.33L7,15.12a6.27,6.27,0,0,1-1-3.37,6.33,6.33,0,0,1,10.8-4.47,6.24,6.24,0,0,1,1.85,4.48A6.33,6.33,0,0,1,12.39,18.08Zm3.47-4.73c-.19-.1-1.13-.56-1.3-.62s-.3-.1-.43.09-.49.62-.6.75-.22.14-.41,0a5.26,5.26,0,0,1-1.53-.95,5.53,5.53,0,0,1-1.06-1.31.28.28,0,0,1,.08-.39c.09-.09.19-.22.29-.34a2,2,0,0,0,.19-.31.37.37,0,0,0,0-.34c-.05-.09-.43-1-.59-1.41s-.31-.32-.42-.32H9.69a.69.69,0,0,0-.5.24,2.1,2.1,0,0,0-.67,1.58,3.66,3.66,0,0,0,.78,2,8.37,8.37,0,0,0,3.25,2.87,9.87,9.87,0,0,0,1.08.4,2.54,2.54,0,0,0,1.2.08,2,2,0,0,0,1.28-.91,1.53,1.53,0,0,0,.11-.9C16.18,13.49,16.05,13.44,15.86,13.35Z" transform="translate(-4.71 -4.14)"/></g></svg>