<svg id="Layer_1" data-name="Layer 1" xmlns="http://www.w3.org/2000/svg" viewBox="0 0 16 11.2"><defs><style>.cls-1{fill:#fff;}</style></defs><path class="cls-1" d="M19.67,8.15a2,2,0,0,0-1.42-1.42A48.44,48.44,0,0,0,12,6.4a48.44,48.44,0,0,0-6.25.33A2,2,0,0,0,4.33,8.15,21.09,21.09,0,0,0,4,12a21.09,21.09,0,0,0,.33,3.85,2,2,0,0,0,1.42,1.42A48.44,48.44,0,0,0,12,17.6a48.44,48.44,0,0,0,6.25-.33,2,2,0,0,0,1.42-1.42A21.09,21.09,0,0,0,20,12,21.09,21.09,0,0,0,19.67,8.15ZM10.4,14.4V9.6L14.56,12Z" transform="translate(-4 -6.4)"/></svg>